<svg width="74" height="24" viewBox="0 0 74 24" fill="none" xmlns="http://www.w3.org/2000/svg">
<circle cx="12" cy="12" r="11.5" stroke="white"/>
<path d="M28.3105 17V8.46875H30.8301C31.584 8.46875 32.252 8.63672 32.834 8.97266C33.4199 9.30859 33.873 9.78516 34.1934 10.4023C34.5137 11.0195 34.6738 11.7266 34.6738 12.5234V12.9512C34.6738 13.7598 34.5117 14.4707 34.1875 15.084C33.8672 15.6973 33.4082 16.1699 32.8105 16.502C32.2168 16.834 31.5352 17 30.7656 17H28.3105ZM29.793 9.66406V15.8164H30.7598C31.5371 15.8164 32.1328 15.5742 32.5469 15.0898C32.9648 14.6016 33.1777 13.9023 33.1855 12.9922V12.5176C33.1855 11.5918 32.9844 10.8848 32.582 10.3965C32.1797 9.9082 31.5957 9.66406 30.8301 9.66406H29.793ZM42.959 12.957C42.959 13.793 42.8145 14.5273 42.5254 15.1602C42.2363 15.7891 41.8223 16.2734 41.2832 16.6133C40.748 16.9492 40.1309 17.1172 39.4316 17.1172C38.7402 17.1172 38.123 16.9492 37.5801 16.6133C37.041 16.2734 36.623 15.791 36.3262 15.166C36.0332 14.541 35.8848 13.8203 35.8809 13.0039V12.5234C35.8809 11.6914 36.0273 10.957 36.3203 10.3203C36.6172 9.68359 37.0332 9.19727 37.5684 8.86133C38.1074 8.52148 38.7246 8.35156 39.4199 8.35156C40.1152 8.35156 40.7305 8.51953 41.2656 8.85547C41.8047 9.1875 42.2207 9.66797 42.5137 10.2969C42.8066 10.9219 42.9551 11.6504 42.959 12.4824V12.957ZM41.4766 12.5117C41.4766 11.5664 41.2969 10.8418 40.9375 10.3379C40.582 9.83398 40.0762 9.58203 39.4199 9.58203C38.7793 9.58203 38.2773 9.83398 37.9141 10.3379C37.5547 10.8379 37.3711 11.5469 37.3633 12.4648V12.957C37.3633 13.8945 37.5449 14.6191 37.9082 15.1309C38.2754 15.6426 38.7832 15.8984 39.4316 15.8984C40.0879 15.8984 40.5918 15.6484 40.9434 15.1484C41.2988 14.6484 41.4766 13.918 41.4766 12.957V12.5117ZM51.2031 17H49.7207L45.918 10.9473V17H44.4355V8.46875H45.918L49.7324 14.5449V8.46875H51.2031V17ZM57.8359 15.0137H54.5312L53.8398 17H52.2988L55.5215 8.46875H56.8516L60.0801 17H58.5332L57.8359 15.0137ZM54.9473 13.8184H57.4199L56.1836 10.2793L54.9473 13.8184ZM66.5137 9.66406H63.8535V17H62.3828V9.66406H59.7461V8.46875H66.5137V9.66406ZM72.625 13.1914H69.1211V15.8164H73.2168V17H67.6387V8.46875H73.1758V9.66406H69.1211V12.0195H72.625V13.1914Z" fill="white"/>
<path d="M14.1982 15.6602C14.1982 15.1621 14.04 14.752 13.7236 14.4297C13.4072 14.1016 12.8799 13.8086 12.1416 13.5508C11.4033 13.2871 10.8291 13.0439 10.4189 12.8213C9.05371 12.0889 8.37109 11.0049 8.37109 9.56934C8.37109 8.59668 8.66699 7.79687 9.25879 7.16992C9.85059 6.54297 10.6533 6.1709 11.667 6.05371V4.1377H13.0732V6.07129C14.0928 6.21777 14.8809 6.65137 15.4375 7.37207C15.9941 8.08691 16.2725 9.01855 16.2725 10.167H14.1455C14.1455 9.42871 13.9785 8.84863 13.6445 8.42676C13.3164 7.99902 12.8682 7.78516 12.2998 7.78516C11.7373 7.78516 11.2979 7.9375 10.9814 8.24219C10.665 8.54688 10.5068 8.9834 10.5068 9.55176C10.5068 10.0615 10.6621 10.4717 10.9727 10.7822C11.2891 11.0869 11.8223 11.377 12.5723 11.6523C13.3223 11.9277 13.9111 12.1826 14.3389 12.417C14.7666 12.6514 15.127 12.9209 15.4199 13.2256C15.7129 13.5244 15.9385 13.8701 16.0967 14.2627C16.2549 14.6553 16.334 15.1152 16.334 15.6426C16.334 16.6328 16.0293 17.4355 15.4199 18.0508C14.8164 18.666 13.9727 19.0293 12.8887 19.1406V20.8545H11.4912V19.1494C10.3311 19.0205 9.4375 18.6045 8.81055 17.9014C8.18945 17.1982 7.87891 16.2666 7.87891 15.1064H10.0146C10.0146 15.8447 10.1992 16.416 10.5684 16.8203C10.9434 17.2246 11.4707 17.4268 12.1504 17.4268C12.8184 17.4268 13.3252 17.2656 13.6709 16.9434C14.0225 16.6211 14.1982 16.1934 14.1982 15.6602Z" fill="white"/>
</svg>
