<svg width="113" height="24" viewBox="0 0 113 24" fill="none" xmlns="http://www.w3.org/2000/svg">
<circle cx="12" cy="12" r="11.5" stroke="url(#paint0_linear)"/>
<path d="M16 12L10 15.4641V8.5359L16 12Z" fill="url(#paint1_linear)"/>
<path d="M34.0273 14.8906L35.3398 8.46875H36.8105L34.8418 17H33.4238L31.8008 10.7715L30.1426 17H28.7188L26.75 8.46875H28.2207L29.5449 14.8789L31.1738 8.46875H32.416L34.0273 14.8906ZM42.4121 15.0137H39.1074L38.416 17H36.875L40.0977 8.46875H41.4277L44.6562 17H43.1094L42.4121 15.0137ZM39.5234 13.8184H41.9961L40.7598 10.2793L39.5234 13.8184ZM51.0898 9.66406H48.4297V17H46.959V9.66406H44.3223V8.46875H51.0898V9.66406ZM58.5605 14.2227C58.4746 15.1328 58.1387 15.8438 57.5527 16.3555C56.9668 16.8633 56.1875 17.1172 55.2148 17.1172C54.5352 17.1172 53.9355 16.957 53.416 16.6367C52.9004 16.3125 52.502 15.8535 52.2207 15.2598C51.9395 14.666 51.793 13.9766 51.7812 13.1914V12.3945C51.7812 11.5898 51.9238 10.8809 52.209 10.2676C52.4941 9.6543 52.9023 9.18164 53.4336 8.84961C53.9688 8.51758 54.5859 8.35156 55.2852 8.35156C56.2266 8.35156 56.9844 8.60742 57.5586 9.11914C58.1328 9.63086 58.4668 10.3535 58.5605 11.2871H57.084C57.0137 10.6738 56.834 10.2324 56.5449 9.96289C56.2598 9.68945 55.8398 9.55273 55.2852 9.55273C54.6406 9.55273 54.1445 9.78906 53.7969 10.2617C53.4531 10.7305 53.2773 11.4199 53.2695 12.3301V13.0859C53.2695 14.0078 53.4336 14.7109 53.7617 15.1953C54.0938 15.6797 54.5781 15.9219 55.2148 15.9219C55.7969 15.9219 56.2344 15.791 56.5273 15.5293C56.8203 15.2676 57.0059 14.832 57.084 14.2227H58.5605ZM66.6641 17H65.1875V13.209H61.373V17H59.8906V8.46875H61.373V12.0195H65.1875V8.46875H66.6641V17ZM78.2188 12.957C78.2188 13.793 78.0742 14.5273 77.7852 15.1602C77.4961 15.7891 77.082 16.2734 76.543 16.6133C76.0078 16.9492 75.3906 17.1172 74.6914 17.1172C74 17.1172 73.3828 16.9492 72.8398 16.6133C72.3008 16.2734 71.8828 15.791 71.5859 15.166C71.293 14.541 71.1445 13.8203 71.1406 13.0039V12.5234C71.1406 11.6914 71.2871 10.957 71.5801 10.3203C71.877 9.68359 72.293 9.19727 72.8281 8.86133C73.3672 8.52148 73.9844 8.35156 74.6797 8.35156C75.375 8.35156 75.9902 8.51953 76.5254 8.85547C77.0645 9.1875 77.4805 9.66797 77.7734 10.2969C78.0664 10.9219 78.2148 11.6504 78.2188 12.4824V12.957ZM76.7363 12.5117C76.7363 11.5664 76.5566 10.8418 76.1973 10.3379C75.8418 9.83398 75.3359 9.58203 74.6797 9.58203C74.0391 9.58203 73.5371 9.83398 73.1738 10.3379C72.8145 10.8379 72.6309 11.5469 72.623 12.4648V12.957C72.623 13.8945 72.8047 14.6191 73.168 15.1309C73.5352 15.6426 74.043 15.8984 74.6914 15.8984C75.3477 15.8984 75.8516 15.6484 76.2031 15.1484C76.5586 14.6484 76.7363 13.918 76.7363 12.957V12.5117ZM86.4629 17H84.9805L81.1777 10.9473V17H79.6953V8.46875H81.1777L84.9922 14.5449V8.46875H86.4629V17ZM89.6973 15.8164H93.5703V17H88.2148V8.46875H89.6973V15.8164ZM96.2715 17H94.7949V8.46875H96.2715V17ZM104.861 17H103.379L99.5762 10.9473V17H98.0938V8.46875H99.5762L103.391 14.5449V8.46875H104.861V17ZM111.6 13.1914H108.096V15.8164H112.191V17H106.613V8.46875H112.15V9.66406H108.096V12.0195H111.6V13.1914Z" fill="url(#paint2_linear)"/>
<defs>
<linearGradient id="paint0_linear" x1="-4.48125" y1="-1.26175e-07" x2="28.4614" y2="10" gradientUnits="userSpaceOnUse">
<stop stop-color="#4BD8B5"/>
<stop offset="1" stop-color="#49D6DF"/>
</linearGradient>
<linearGradient id="paint1_linear" x1="16" y1="6.50625" x2="12.6667" y2="17.4871" gradientUnits="userSpaceOnUse">
<stop stop-color="#4BD8B5"/>
<stop offset="1" stop-color="#49D6DF"/>
</linearGradient>
<linearGradient id="paint2_linear" x1="9.75547" y1="6" x2="38.366" y2="59.9709" gradientUnits="userSpaceOnUse">
<stop stop-color="#4BD8B5"/>
<stop offset="1" stop-color="#49D6DF"/>
</linearGradient>
</defs>
</svg>
