<svg width="68" height="94" viewBox="0 0 68 94" fill="none" xmlns="http://www.w3.org/2000/svg">
<path d="M34.0457 0C15.8127 0 0.979492 14.835 0.979492 33.0703C0.979492 50.7103 31.2098 90.9006 32.4976 92.6047C32.8594 93.091 33.4391 93.375 34.0459 93.375C34.6528 93.375 35.2325 93.091 35.5943 92.6047C36.8818 90.9006 67.1124 50.7105 67.1124 33.0703C67.112 14.835 52.2788 0 34.0457 0ZM34.0457 50.5781C24.3943 50.5781 16.54 42.7229 16.54 33.0703C16.54 23.4176 24.3943 15.5624 34.0457 15.5624C43.6972 15.5624 51.5514 23.4176 51.5514 33.0703C51.5514 42.7229 43.6972 50.5781 34.0457 50.5781Z" fill="#EB5757"/>
</svg>
